<svg width="76" height="22" viewBox="0 0 76 22" fill="none" xmlns="http://www.w3.org/2000/svg">
<path d="M4.939 16.9063C3.99746 16.9063 3.1548 16.6611 2.41096 16.1709C1.66712 15.6807 1.07932 14.9691 0.647619 14.0361C0.215871 13.1032 0 11.9699 0 10.6363C0 9.28691 0.21848 8.14833 0.6554 7.22062C1.09754 6.28767 1.69316 5.58395 2.44217 5.10957C3.19123 4.62989 4.02607 4.39008 4.94678 4.39008C5.64901 4.39008 6.22642 4.51128 6.67895 4.75379C7.13148 4.99096 7.4904 5.27822 7.75571 5.61559C8.02097 5.94766 8.22645 6.26132 8.37211 6.55647H8.48911V0.5H11.3214V16.6928H8.54376V14.7794H8.37211C8.22645 15.0746 8.0158 15.3882 7.7401 15.7203C7.4644 16.0471 7.1003 16.3264 6.64773 16.5584C6.1952 16.7903 5.62562 16.9063 4.939 16.9063ZM5.72706 14.558C6.32525 14.558 6.83499 14.3946 7.25635 14.0678C7.67766 13.7357 7.99758 13.2745 8.21606 12.6841C8.4345 12.0937 8.54376 11.4059 8.54376 10.6205C8.54376 9.8351 8.4345 9.15249 8.21606 8.57267C8.00275 7.99285 7.68549 7.54216 7.26413 7.22062C6.84799 6.89912 6.33564 6.73835 5.72706 6.73835C5.09766 6.73835 4.57226 6.90436 4.15095 7.23644C3.72959 7.56851 3.41228 8.02713 3.19901 8.61219C2.98575 9.19729 2.87914 9.86673 2.87914 10.6205C2.87914 11.3795 2.98575 12.0569 3.19901 12.6525C3.41749 13.2429 3.73742 13.7094 4.15873 14.052C4.58526 14.3893 5.10805 14.558 5.72706 14.558ZM21.2008 11.5851V4.54821H24.0255V16.6928H21.2868V14.5343H21.1619C20.8913 15.2142 20.4468 15.7704 19.8275 16.2026C19.2137 16.6348 18.457 16.8509 17.5571 16.8509C16.7716 16.8509 16.0772 16.6743 15.4739 16.3212C14.8756 15.9627 14.4073 15.4435 14.0695 14.7636C13.7312 14.0783 13.5623 13.2507 13.5623 12.2809V4.54821H16.3866V11.8381C16.3866 12.6077 16.5949 13.2192 17.011 13.6724C17.4271 14.1258 17.9732 14.3524 18.6493 14.3524C19.0658 14.3524 19.4686 14.2497 19.8591 14.0441C20.2491 13.8385 20.5691 13.5328 20.8185 13.1269C21.0735 12.7157 21.2008 12.2018 21.2008 11.5851ZM31.3728 21.5C30.3585 21.5 29.4874 21.3603 28.7591 21.081C28.0308 20.8069 27.4458 20.4379 27.0036 19.9741C26.5614 19.5102 26.2543 18.9962 26.0826 18.4322L28.6263 17.8076C28.7408 18.0448 28.9074 18.2794 29.1257 18.5113C29.3441 18.7485 29.6384 18.9436 30.0074 19.0964C30.3823 19.2545 30.8528 19.3336 31.42 19.3336C32.221 19.3336 32.8838 19.1359 33.4093 18.7406C33.9348 18.3506 34.1976 17.7075 34.1976 16.8114V14.5106H34.0571C33.9115 14.8057 33.6982 15.1088 33.4171 15.4198C33.1416 15.7308 32.7749 15.9917 32.3172 16.2026C31.8644 16.4134 31.295 16.5188 30.6084 16.5188C29.6874 16.5188 28.8529 16.3001 28.1036 15.8626C27.3598 15.4198 26.767 14.7609 26.3248 13.8859C25.8876 13.0056 25.6693 11.904 25.6693 10.581C25.6693 9.24739 25.8876 8.12198 26.3248 7.20485C26.767 6.28238 27.3625 5.58395 28.1114 5.10957C28.8607 4.62989 29.6956 4.39008 30.6162 4.39008C31.3184 4.39008 31.8956 4.51128 32.3483 4.75379C32.806 4.99096 33.1699 5.27822 33.4405 5.61559C33.711 5.94766 33.9165 6.26132 34.0571 6.55647H34.2132V4.54821H36.9985V16.8904C36.9985 17.9289 36.7541 18.788 36.2652 19.468C35.7764 20.148 35.1076 20.6567 34.2598 20.994C33.4121 21.3313 32.4499 21.5 31.3728 21.5ZM31.3962 14.2734C31.9944 14.2734 32.5044 14.1258 32.9255 13.8306C33.3471 13.5354 33.6671 13.1111 33.8854 12.5576C34.1037 12.0041 34.2132 11.34 34.2132 10.5652C34.2132 9.80082 34.1037 9.13143 33.8854 8.55685C33.6721 7.98232 33.3549 7.53692 32.9333 7.22062C32.5172 6.89912 32.005 6.73835 31.3962 6.73835C30.7668 6.73835 30.2417 6.90436 29.8201 7.23644C29.399 7.56851 29.0818 8.02448 28.8685 8.6043C28.6552 9.17883 28.5485 9.83245 28.5485 10.5652C28.5485 11.3083 28.6552 11.9594 28.8685 12.5181C29.0868 13.0716 29.4068 13.5038 29.8279 13.8148C30.2545 14.1205 30.7773 14.2734 31.3962 14.2734ZM44.3362 21.5C43.3219 21.5 42.4508 21.3603 41.7225 21.081C40.9942 20.8069 40.4092 20.4379 39.967 19.9741C39.5248 19.5102 39.2177 18.9962 39.046 18.4322L41.5897 17.8076C41.7042 18.0448 41.8708 18.2794 42.0891 18.5113C42.3075 18.7485 42.6018 18.9436 42.9708 19.0964C43.3457 19.2545 43.8162 19.3336 44.3834 19.3336C45.1844 19.3336 45.8473 19.1359 46.3728 18.7406C46.8982 18.3506 47.161 17.7075 47.161 16.8114V14.5106H47.0205C46.8749 14.8057 46.6616 15.1088 46.3805 15.4198C46.105 15.7308 45.7383 15.9917 45.2806 16.2026C44.8279 16.4134 44.2584 16.5188 43.5718 16.5188C42.6508 16.5188 41.8163 16.3001 41.067 15.8626C40.3232 15.4198 39.7304 14.7609 39.2882 13.8859C38.851 13.0056 38.6327 11.904 38.6327 10.581C38.6327 9.24739 38.851 8.12198 39.2882 7.20485C39.7304 6.28238 40.3259 5.58395 41.0748 5.10957C41.8241 4.62989 42.659 4.39008 43.5796 4.39008C44.2818 4.39008 44.859 4.51128 45.3117 4.75379C45.7694 4.99096 46.1333 5.27822 46.4039 5.61559C46.6744 5.94766 46.8799 6.26132 47.0205 6.55647H47.1766V4.54821H49.962V16.8904C49.962 17.9289 49.7175 18.788 49.2286 19.468C48.7398 20.148 48.071 20.6567 47.2232 20.994C46.3755 21.3313 45.4133 21.5 44.3362 21.5ZM44.3596 14.2734C44.9579 14.2734 45.4678 14.1258 45.8889 13.8306C46.3105 13.5354 46.6305 13.1111 46.8488 12.5576C47.0672 12.0041 47.1766 11.34 47.1766 10.5652C47.1766 9.80082 47.0672 9.13143 46.8488 8.55685C46.6355 7.98232 46.3183 7.53692 45.8967 7.22062C45.4806 6.89912 44.9684 6.73835 44.3596 6.73835C43.7302 6.73835 43.2051 6.90436 42.7836 7.23644C42.3624 7.56851 42.0452 8.02448 41.8319 8.6043C41.6186 9.17883 41.5119 9.83245 41.5119 10.5652C41.5119 11.3083 41.6186 11.9594 41.8319 12.5181C42.0502 13.0716 42.3702 13.5038 42.7913 13.8148C43.218 14.1205 43.7407 14.2734 44.3596 14.2734ZM59.7262 11.5851V4.54821H62.5509V16.6928H59.8122V14.5343H59.6873C59.4167 15.2142 58.9723 15.7704 58.3529 16.2026C57.7395 16.6348 56.9824 16.8509 56.0825 16.8509C55.297 16.8509 54.6026 16.6743 53.9993 16.3212C53.401 15.9627 52.9332 15.4435 52.5949 14.7636C52.2566 14.0783 52.0877 13.2507 52.0877 12.2809V4.54821H54.912V11.8381C54.912 12.6077 55.1203 13.2192 55.5364 13.6724C55.9525 14.1258 56.4986 14.3524 57.1751 14.3524C57.5912 14.3524 57.994 14.2497 58.3845 14.0441C58.7745 13.8385 59.0945 13.5328 59.3439 13.1269C59.5989 12.7157 59.7262 12.2018 59.7262 11.5851ZM64.6863 21.247V4.54821H67.4639V6.55647H67.6278C67.7734 6.26132 67.9789 5.94766 68.2444 5.61559C68.5094 5.27822 68.8683 4.99096 69.321 4.75379C69.7737 4.51128 70.3509 4.39008 71.0531 4.39008C71.9791 4.39008 72.8141 4.62989 73.5579 5.10957C74.3068 5.58395 74.9 6.28767 75.3367 7.22062C75.7789 8.14833 76 9.28691 76 10.6363C76 11.9699 75.784 13.1032 75.3523 14.0361C74.9206 14.9691 74.3329 15.6807 73.589 16.1709C72.8452 16.6611 72.0025 16.9063 71.0609 16.9063C70.3743 16.9063 69.8048 16.7903 69.3521 16.5584C68.8999 16.3264 68.5355 16.0471 68.2599 15.7203C67.9894 15.3882 67.7789 15.0746 67.6278 14.7794H67.5111V21.247H64.6863ZM67.4561 10.6205C67.4561 11.4059 67.5655 12.0937 67.7839 12.6841C68.0077 13.2745 68.3277 13.7357 68.7438 14.0678C69.1649 14.3946 69.6748 14.558 70.2731 14.558C70.897 14.558 71.4198 14.3893 71.8414 14.052C72.2625 13.7094 72.5797 13.2429 72.793 12.6525C73.0118 12.0569 73.1208 11.3795 73.1208 10.6205C73.1208 9.86673 73.0141 9.19729 72.8008 8.61219C72.5875 8.02713 72.2703 7.56851 71.8492 7.23644C71.4276 6.90436 70.9025 6.73835 70.2731 6.73835C69.6693 6.73835 69.1571 6.89912 68.736 7.22062C68.3144 7.54216 67.9945 7.99285 67.7761 8.57267C67.5628 9.15249 67.4561 9.8351 67.4561 10.6205Z" fill="#333333"/>
</svg>
